<svg width="20" height="20" viewBox="0 0 20 20" fill="none" xmlns="http://www.w3.org/2000/svg">
<path d="M15 14.8583C14.5121 14.6861 14.0896 14.3669 13.7907 13.9445C13.4918 13.5221 13.3313 13.0174 13.3313 12.5C13.3313 11.9826 13.4918 11.4779 13.7907 11.0555C14.0896 10.6331 14.5121 10.3138 15 10.1416L15 1.66664L16.6667 1.66664L16.6667 10.1416C17.1547 10.3138 17.5772 10.6331 17.8761 11.0555C18.1749 11.4779 18.3354 11.9826 18.3354 12.5C18.3354 13.0174 18.1749 13.5221 17.8761 13.9445C17.5772 14.3669 17.1547 14.6861 16.6667 14.8583L16.6667 18.3333L15 18.3333L15 14.8583ZM9.16671 9.85831C8.67877 9.68614 8.25624 9.36686 7.95737 8.94448C7.6585 8.5221 7.49801 8.01741 7.49801 7.49998C7.49801 6.98255 7.6585 6.47786 7.95737 6.05548C8.25624 5.63309 8.67877 5.31381 9.16671 5.14165L9.16671 1.66664L10.8334 1.66664L10.8334 5.14165C11.3213 5.31381 11.7439 5.63309 12.0427 6.05548C12.3416 6.47786 12.5021 6.98255 12.5021 7.49998C12.5021 8.01741 12.3416 8.5221 12.0427 8.94448C11.7439 9.36686 11.3213 9.68614 10.8334 9.85831L10.8334 18.3333L9.16672 18.3333L9.16671 9.85831ZM3.33338 14.8583C2.84544 14.6861 2.42291 14.3669 2.12404 13.9445C1.82517 13.5221 1.66467 13.0174 1.66467 12.5C1.66467 11.9826 1.82517 11.4779 2.12404 11.0555C2.42291 10.6331 2.84544 10.3138 3.33338 10.1416L3.33338 1.66664L5.00005 1.66664L5.00005 10.1416C5.48799 10.3138 5.91052 10.6331 6.20939 11.0555C6.50826 11.4779 6.66876 11.9826 6.66876 12.5C6.66876 13.0174 6.50826 13.5221 6.20939 13.9445C5.91052 14.3669 5.48799 14.6861 5.00005 14.8583L5.00005 18.3333L3.33338 18.3333L3.33338 14.8583ZM5.00005 12.5C5.00005 12.279 4.91225 12.067 4.75597 11.9107C4.59969 11.7544 4.38773 11.6666 4.16671 11.6666C3.9457 11.6666 3.73374 11.7544 3.57746 11.9107C3.42118 12.067 3.33338 12.279 3.33338 12.5C3.33338 12.721 3.42118 12.933 3.57746 13.0892C3.73374 13.2455 3.9457 13.3333 4.16671 13.3333C4.38773 13.3333 4.59969 13.2455 4.75597 13.0892C4.91225 12.933 5.00005 12.721 5.00005 12.5ZM10.8334 7.49998C10.8334 7.27896 10.7456 7.067 10.5893 6.91072C10.433 6.75444 10.2211 6.66665 10 6.66665C9.77903 6.66665 9.56707 6.75444 9.41079 6.91072C9.25451 7.067 9.16671 7.27896 9.16671 7.49998C9.16671 7.72099 9.25451 7.93295 9.41079 8.08923C9.56707 8.24551 9.77903 8.33331 10 8.33331C10.2211 8.33331 10.433 8.24551 10.5893 8.08923C10.7456 7.93295 10.8334 7.72099 10.8334 7.49998ZM16.6667 12.5C16.6667 12.279 16.5789 12.067 16.4226 11.9107C16.2664 11.7544 16.0544 11.6666 15.8334 11.6666C15.6124 11.6666 15.4004 11.7544 15.2441 11.9107C15.0878 12.067 15 12.279 15 12.5C15 12.721 15.0878 12.933 15.2441 13.0892C15.4004 13.2455 15.6124 13.3333 15.8334 13.3333C16.0544 13.3333 16.2664 13.2455 16.4226 13.0892C16.5789 12.933 16.6667 12.721 16.6667 12.5Z" fill="black"/>
</svg>
