<svg width="44" height="44" viewBox="0 0 44 44" fill="none" xmlns="http://www.w3.org/2000/svg">
<path d="M25.6667 5.5V12.8333C25.6667 13.3196 25.8598 13.7859 26.2037 14.1297C26.5475 14.4735 27.0138 14.6667 27.5 14.6667H34.8334" stroke="#2C3E50" stroke-width="2" stroke-linecap="round" stroke-linejoin="round"/>
<path d="M31.1667 38.5H12.8334C11.8609 38.5 10.9283 38.1137 10.2406 37.4261C9.553 36.7384 9.16669 35.8058 9.16669 34.8333V9.16667C9.16669 8.19421 9.553 7.26158 10.2406 6.57394C10.9283 5.88631 11.8609 5.5 12.8334 5.5H25.6667L34.8334 14.6667V34.8333C34.8334 35.8058 34.447 36.7384 33.7594 37.4261C33.0718 38.1137 32.1391 38.5 31.1667 38.5Z" stroke="#2C3E50" stroke-width="2" stroke-linecap="round" stroke-linejoin="round"/>
<path d="M22 20.1665V31.1665" stroke="#2C3E50" stroke-width="2" stroke-linecap="round" stroke-linejoin="round"/>
<path d="M16.5 25.6665L22 31.1665L27.5 25.6665" stroke="#2C3E50" stroke-width="2" stroke-linecap="round" stroke-linejoin="round"/>
</svg>
